<?xml version="1.0" encoding="UTF-8"?>
<svg id="Capa_2" data-name="Capa 2" xmlns="http://www.w3.org/2000/svg" viewBox="0 0 545.48 357.17">
  <defs>
    <style>
      .cls-1 {
        fill: none;
        stroke: #000;
        stroke-miterlimit: 10;
        stroke-width: 8px;
      }
    </style>
  </defs>
  <g id="Capa_1-2" data-name="Capa 1">
    <path class="cls-1" d="M.03,204.61c21.57-.15,43.15-.34,64.72-.59,20.61-.24,42.05,1.02,62.46-2.27,34.94-5.62,67.44-36.22,61.92-73.71-2.83-19.23-13.06-36.35-16.42-55.43s1.9-35.23,14.95-48.71c10.29-10.63,28.9-23.7,44.72-18.87,14.87,4.54,9.82,28.05,7.97,38.84-3.46,20.13-9.4,39.91-10.7,60.37-1.1,17.35,1.92,35.49,16.91,46.28,12.34,8.88,30.05,8.36,38.53-5.35s9.42-33.37,11.6-49.35c2.38-17.51,4.94-36.29,14.29-51.68s24.57-21.93,41.7-23.59c13.9-1.35,29.52-.91,42.75,4.09,5.36,2.03,10.65,5.06,14.05,9.81,4.1,5.72,4.06,12.43,2.73,19.08-3.7,18.62-15.01,34.31-26.85,48.67s-25.99,28.79-40.72,41.23c-13.94,11.77-29.57,21.49-46.36,28.65-17.46,7.44-36.18,11.25-53.69,18.55-34.68,14.47-59.78,45.75-73.47,80.08-10.06,25.22-21.18,76.31,17.93,81.92,32.25,4.62,59.53-21.31,67.23-50.95,2.22-8.54,2.9-17.45,1.14-26.14-1.87-9.29-6.64-16.98-10.66-25.39-3.43-7.17-5.15-14.82-2.24-22.46,2.01-5.29,5.17-10.4,9.07-14.5,3.12-3.27,7.88-7.01,12.66-5.11,6.47,2.57,8.85,12.65,10.27,18.61,4.57,19.13,5.49,39.17,9.26,58.49,3.42,17.55,7.96,36.55,19.46,50.74s28.18,16.28,45.36,16.15c18.27-.15,37.56.76,55.52-3.19,5.98-1.31,14.17-4.51,13.77-11.97-.47-8.83-10.86-16.92-16.66-22.58-28.53-27.87-55.87-57.54-75.23-92.71-5.08-9.23-13.66-23.53-10.91-34.76,1.38-5.63,6.45-6.86,11.65-6.35,10.07.98,19.83,5.08,29.51,7.82,20.23,5.74,40.79,9.87,61.7,12.14,20.96,2.28,41.84,2.15,62.89,2.07s41.73.21,62.59.4"/>
  </g>
</svg>